<?xml version="1.0" encoding="UTF-8"?>
<svg width="5120px" height="3840px" viewBox="0 0 5120 3840" version="1.1" xmlns="http://www.w3.org/2000/svg" xmlns:xlink="http://www.w3.org/1999/xlink">
    <!-- Generator: Sketch 42 (36781) - http://www.bohemiancoding.com/sketch -->
    <title>Mesh</title>
    <desc>Created with Sketch.</desc>
    <defs></defs>
    <g id="Page-1" stroke="none" stroke-width="1" fill="none" fill-rule="evenodd" stroke-linecap="square">
        <g id="Main-Screen" stroke-width="10" stroke="#62B5E5">
            <g id="Top-Bar" transform="translate(-1629.000000, -1772.000000)">
                <g id="Mesh">
                    <path d="M1520,1330 C1520,1330 1815,1470 2070,1470 C2325,1470 2440.32988,1260 2985,1260 C3529.67012,1260 3540,1470 3935,1470 C4330,1470 4198.80262,1260 4985,1260 C5771.19738,1260 5745,1470 6150,1470 C6555,1470 6705,1330 6705,1330 L7410,2250" id="Line"></path>
                    <path d="M1520,1630 C1520,1630 1815,1770 2070,1770 C2325,1770 2440.32988,1560 2985,1560 C3529.67012,1560 3540,1770 3935,1770 C4330,1770 4198.80262,1560 4985,1560 C5771.19738,1560 5745,1770 6150,1770 C6555,1770 6705,1630 6705,1630 L7410,2550" id="Line"></path>
                    <path d="M1510,1920 C1510,1920 1805,2060 2060,2060 C2315,2060 2430.32988,1850 2975,1850 C3519.67012,1850 3530,2060 3925,2060 C4320,2060 4188.80262,1850 4975,1850 C5761.19738,1850 5735,2060 6140,2060 C6545,2060 6695,1920 6695,1920 L7400,2840" id="Line"></path>
                    <path d="M1520,2220 C1520,2220 1815,2360 2070,2360 C2325,2360 2440.32988,2150 2985,2150 C3529.67012,2150 3540,2360 3935,2360 C4330,2360 4198.80262,2150 4985,2150 C5771.19738,2150 5745,2360 6150,2360 C6555,2360 6705,2220 6705,2220 L7410,3140" id="Line"></path>
                    <path d="M1520,2520 C1520,2520 1815,2660 2070,2660 C2325,2660 2440.32988,2450 2985,2450 C3529.67012,2450 3540,2660 3935,2660 C4330,2660 4198.80262,2450 4985,2450 C5771.19738,2450 5745,2660 6150,2660 C6555,2660 6705,2520 6705,2520 L7410,3440" id="Line"></path>
                    <path d="M1510,2810 C1510,2810 1805,2950 2060,2950 C2315,2950 2430.32988,2740 2975,2740 C3519.67012,2740 3530,2950 3925,2950 C4320,2950 4188.80262,2740 4975,2740 C5761.19738,2740 5735,2950 6140,2950 C6545,2950 6695,2810 6695,2810 L7400,3730" id="Line"></path>
                    <path d="M1510,1030 C1510,1030 1805,1170 2060,1170 C2315,1170 2430.32988,960 2975,960 C3519.67012,960 3530,1170 3925,1170 C4320,1170 4188.80262,960 4975,960 C5761.19738,960 5735,1170 6140,1170 C6545,1170 6695,1030 6695,1030 L7400,1950" id="Line"></path>
                    <path d="M2830,2520 C2830,2520 3125,2660 3380,2660 C3635,2660 3750.32988,2450 4295,2450 C4839.67012,2450 4850,2660 5245,2660 C5640,2660 5508.80262,2450 6295,2450 C7081.19738,2450 7055,2660 7460,2660 C7865,2660 8015,2520 8015,2520 L8720,3440" id="Line" transform="translate(5775.000000, 2945.000000) rotate(90.000000) translate(-5775.000000, -2945.000000) "></path>
                    <path d="M2170,2640 C2170,2640 2465,2780 2720,2780 C2975,2780 3090.32988,2570 3635,2570 C4179.67012,2570 4190,2780 4585,2780 C4980,2780 4848.80262,2570 5635,2570 C6421.19738,2570 6395,2780 6800,2780 C7205,2780 7355,2640 7355,2640 L8060,3560" id="Line" transform="translate(5115.000000, 3065.000000) rotate(90.000000) translate(-5115.000000, -3065.000000) "></path>
                    <path d="M1510,2520 C1510,2520 1805,2660 2060,2660 C2315,2660 2430.32988,2450 2975,2450 C3519.67012,2450 3530,2660 3925,2660 C4320,2660 4188.80262,2450 4975,2450 C5761.19738,2450 5735,2660 6140,2660 C6545,2660 6695,2520 6695,2520 L7400,3440" id="Line" transform="translate(4455.000000, 2945.000000) rotate(90.000000) translate(-4455.000000, -2945.000000) "></path>
                    <path d="M850,2720 C850,2720 1145,2860 1400,2860 C1655,2860 1770.32988,2650 2315,2650 C2859.67012,2650 2870,2860 3265,2860 C3660,2860 3528.80262,2650 4315,2650 C5101.19738,2650 5075,2860 5480,2860 C5885,2860 6035,2720 6035,2720 L6740,3640" id="Line" transform="translate(3795.000000, 3145.000000) rotate(90.000000) translate(-3795.000000, -3145.000000) "></path>
                    <path d="M190,2840 C190,2840 485,2980 740,2980 C995,2980 1110.32988,2770 1655,2770 C2199.67012,2770 2210,2980 2605,2980 C3000,2980 2868.80262,2770 3655,2770 C4441.19738,2770 4415,2980 4820,2980 C5225,2980 5375,2840 5375,2840 L6080,3760" id="Line" transform="translate(3135.000000, 3265.000000) rotate(90.000000) translate(-3135.000000, -3265.000000) "></path>
                    <path d="M-470,2720 C-470,2720 -175,2860 80,2860 C335,2860 450.329883,2650 995,2650 C1539.67012,2650 1550,2860 1945,2860 C2340,2860 2208.80262,2650 2995,2650 C3781.19738,2650 3755,2860 4160,2860 C4565,2860 4715,2720 4715,2720 L5420,3640" id="Line" transform="translate(2475.000000, 3145.000000) rotate(90.000000) translate(-2475.000000, -3145.000000) "></path>
                    <path d="M-1130,2520 C-1130,2520 -835,2660 -580,2660 C-325,2660 -209.670117,2450 335,2450 C879.670117,2450 890,2660 1285,2660 C1680,2660 1548.80262,2450 2335,2450 C3121.19738,2450 3095,2660 3500,2660 C3905,2660 4055,2520 4055,2520 L4760,3440" id="Line" transform="translate(1815.000000, 2945.000000) rotate(90.000000) translate(-1815.000000, -2945.000000) "></path>
                    <path d="M-1790,2640 C-1790,2640 -1495,2780 -1240,2780 C-985,2780 -869.670117,2570 -325,2570 C219.670117,2570 230,2780 625,2780 C1020,2780 888.80262,2570 1675,2570 C2461.19738,2570 2435,2780 2840,2780 C3245,2780 3395,2640 3395,2640 L4100,3560" id="Line" transform="translate(1155.000000, 3065.000000) rotate(90.000000) translate(-1155.000000, -3065.000000) "></path>
                    <path d="M1510,3140 C1510,3140 1805,3280 2060,3280 C2315,3280 2430.32988,3070 2975,3070 C3519.67012,3070 3530,3280 3925,3280 C4320,3280 4188.80262,3070 4975,3070 C5761.19738,3070 5735,3280 6140,3280 C6545,3280 6695,3140 6695,3140 L7400,4060" id="Line"></path>
                </g>
            </g>
        </g>
    </g>
</svg>